<svg width="588" height="131" viewBox="0 0 588 131" fill="none" xmlns="http://www.w3.org/2000/svg">
<path d="M210.67 44.87L210.49 48.63H182.62V3.19H209.4L209.58 6.95001H186.55V23.13H206.48V26.52H186.55V44.88H210.67V44.87Z" fill="white"/>
<path d="M228.47 49.36C224.23 49.36 220.23 48.21 217.56 46.09L218.17 42.76C220.77 44.94 224.77 46.15 228.41 46.15C234.47 46.15 237.02 43.06 237.02 38.94C237.02 29.37 217.75 33.49 217.75 21.67C217.75 15.85 221.93 12.28 229.63 12.28C233.02 12.28 236.17 12.95 239.02 14.34L238.66 17.55C235.69 16.22 232.54 15.55 229.57 15.55C224.48 15.55 221.27 17.85 221.27 21.49C221.27 30.4 240.48 25.97 240.48 38.58C240.47 45.05 236.77 49.36 228.47 49.36Z" fill="white"/>
<path d="M254.45 15.85V40.03C254.45 44.33 256.69 46.03 260.27 46.03C261.3 46.03 262.57 45.85 263.3 45.55L263.6 48.46C262.63 48.89 260.87 49.19 259.3 49.19C253.73 49.19 250.76 46.28 250.76 40.16V15.86H245.19V12.89H250.82L251.55 3.5L254.46 3.14001V12.9H263.85V15.87H254.45V15.85Z" fill="white"/>
<path d="M297.7 37.36C297.7 44.87 293.4 49.36 284.43 49.36C275.52 49.36 271.22 44.82 271.22 37.36V12.88H274.86V37.24C274.86 42.81 278.13 45.84 284.43 45.84C290.73 45.84 294.07 42.87 294.07 37.24V12.88H297.7V37.36Z" fill="white"/>
<path d="M331.92 48.63L331.31 44.45L331.13 44.39C328.89 47.66 325.07 49.36 320.04 49.36C310.1 49.36 306.22 43.54 306.22 30.76C306.22 18.46 310.34 12.28 320.1 12.28C324.46 12.28 328.46 13.86 331.01 16.95L331.13 16.89L331.01 12.04V0.470001L334.71 0.170013V48.64H331.92V48.63ZM331.01 20.7C329.25 17.73 325.56 15.79 321.01 15.79C313.01 15.79 309.98 20.15 309.98 30.88C309.98 41.91 312.77 46.21 320.95 46.21C326.95 46.21 329.85 43.24 331.01 41V20.7Z" fill="white"/>
<path d="M349.9 5.54999C348.08 5.54999 347.05 4.94001 347.05 3.01001C347.05 1.37001 348.08 0.470001 349.9 0.470001C351.72 0.470001 352.75 1.38001 352.75 3.01001C352.75 4.76001 351.72 5.54999 349.9 5.54999ZM348.02 48.63V13.06L351.72 12.76V48.63H348.02Z" fill="white"/>
<path d="M377.76 49.42C367.34 49.42 362.67 44.21 362.67 30.82C362.67 17.55 367.4 12.28 377.76 12.28C388.24 12.28 392.66 17.55 392.66 30.82C392.66 44.21 388.24 49.42 377.76 49.42ZM377.76 46.21C385.76 46.21 388.85 41.97 388.85 30.82C388.85 19.73 385.76 15.55 377.76 15.55C369.7 15.55 366.49 19.73 366.49 30.82C366.49 42.02 369.7 46.21 377.76 46.21Z" fill="white"/>
<path d="M206.34 129.38H180.42V68.82H206.42C220.39 68.82 227.33 75.03 227.33 84.56C227.33 91.1 224.26 95.14 219.42 97.32V97.48C225.96 99.5 229.35 104.26 229.35 111.53C229.35 122.52 222.49 129.38 206.34 129.38ZM205.77 82.47H196.65V92.81H205.94C209.82 92.81 211.19 91.36 211.19 87.48C211.18 83.68 209.73 82.47 205.77 82.47ZM206.34 104.67H196.65V116.06H206.58C210.86 116.06 212.47 114.85 212.47 110.33C212.47 106.29 210.94 104.67 206.34 104.67Z" fill="white"/>
<path d="M235.89 129.38V80.37L248.24 79.8L249.61 86.91H249.85C252.92 81.58 257.44 79.16 262.53 79.16C264.87 79.16 266.81 79.48 268.1 79.97L267.21 94.67C265.6 94.18 263.58 93.86 261.48 93.86C255.5 93.86 251.47 97.74 251.47 104.76V129.39H235.89V129.38Z" fill="white"/>
<path d="M316.64 111.38C316.64 123.81 309.54 130.27 294.84 130.27C280.14 130.27 273.12 123.57 273.12 111.38V79.97H288.62V111.14C288.62 115.1 290.48 117.04 294.92 117.04C299.2 117.04 301.06 115.26 301.06 111.14V79.97H316.64V111.38Z" fill="white"/>
<path d="M338.85 130.35C332.79 130.35 327.54 129.38 323.19 127.28L324.72 115.01C328.92 117.19 334.81 118.16 338.77 118.16C342.57 118.16 344.18 116.79 344.18 114.77C344.18 108.55 322.62 112.75 322.62 95.15C322.62 86.03 328.84 79.16 342.24 79.16C347.41 79.16 352.41 80.21 356.61 81.91L355.48 94.02C351.36 92.41 345.55 91.68 341.99 91.68C338.92 91.68 337.47 92.73 337.47 94.5C337.47 100.4 358.54 96.52 358.54 113.4C358.55 123.49 352.9 130.35 338.85 130.35Z" fill="white"/>
<path d="M397.07 93.77C394.73 93.12 391.98 92.56 389.56 92.56C381.24 92.56 378.82 95.79 378.82 105C378.82 113.88 382.7 117.59 389.24 117.59C392.22 117.59 394.97 117.03 397.31 116.14L398.36 127.77C395.53 129.39 391.25 130.35 385.84 130.35C370.74 130.35 362.67 121.79 362.67 105C362.67 88.77 369.69 79.24 386.16 79.24C390.12 79.24 394.88 80.05 397.87 81.18L397.07 93.77Z" fill="white"/>
<path d="M432.43 129.38V98.54C432.43 94.26 430.57 92.24 426.46 92.24C423.64 92.24 421.29 93.45 420 95.06V129.38H404.5V66.96L420 66.24V76.01L419.84 82.47L420.08 82.63C423.71 79.88 427.83 79.08 431.47 79.08C441.81 79.08 448.02 86.35 448.02 98.54V129.38H432.43V129.38Z" fill="white"/>
<path d="M453.75 104.35C453.75 88.61 460.86 79.16 476.36 79.16C489.52 79.16 497.35 86.58 497.35 102.17C497.35 104.43 497.19 107.09 496.94 109.12H469.9C470.54 115.09 474.1 117.36 481.36 117.36C485.8 117.36 490.16 116.72 494.36 115.34L496.06 127.29C491.94 129.07 485.89 130.28 479.43 130.28C461.83 130.27 453.75 121.06 453.75 104.35ZM483.14 99.34C482.98 93.69 480.72 91.51 476.44 91.51C471.76 91.51 470.06 93.37 469.58 99.34H483.14Z" fill="white"/>
<path d="M520.37 91.19V113.88C520.37 117.03 521.9 118.4 525.46 118.4C526.67 118.4 528.37 118.16 529.26 117.83L530.07 128.65C528.29 129.54 524.58 130.18 520.7 130.18C509.88 130.18 504.8 123.96 504.8 114.28V91.19H500.12V79.97H505.61L508.12 69.47L520.39 68.42V79.97H530.65V91.19H520.37Z" fill="white"/>
<path d="M554.37 91.19V113.88C554.37 117.03 555.9 118.4 559.46 118.4C560.67 118.4 562.37 118.16 563.26 117.83L564.07 128.65C562.29 129.54 558.58 130.18 554.7 130.18C543.88 130.18 538.8 123.96 538.8 114.28V91.19H534.12V79.97H539.61L542.12 69.47L554.39 68.42V79.97H564.65V91.19H554.37Z" fill="white"/>
<path d="M579 76.33C573.19 76.33 570.52 74.71 570.52 70.27C570.52 66.31 573.19 64.21 579 64.21C584.9 64.21 587.4 66.31 587.4 70.27C587.39 74.32 584.89 76.33 579 76.33ZM571 129.38V80.45L586.91 79.72V129.38H571Z" fill="white"/>
<path d="M102.37 24.15V24.24C102.37 26.69 100.47 28.68 98.12 28.68H38.01V19.69H98.12C100.47 19.69 102.37 21.69 102.37 24.15Z" fill="white"/>
<path d="M107.37 107.53V107.62C107.39 110.09 105.49 112.1 103.12 112.1H37.97V103.11H103.12C105.45 103.11 107.36 105.08 107.37 107.53Z" fill="white"/>
<path d="M135.68 94.68V97.04C135.68 115.1 120.87 129.78 102.64 129.78H30.29C26.97 129.78 24.27 127.11 24.27 123.82V75.33H33.34V120.79H102.64C115.86 120.79 126.61 110.14 126.61 97.03V94.67C126.61 81.56 115.86 70.73 102.64 70.73H77.14C78.76 69.79 79.85 68.04 79.85 66.02V65.92C79.85 64.26 79.11 62.77 77.95 61.77H96.23C109.45 61.77 120.2 51.11 120.2 38.01V35.64C120.2 22.54 109.45 11.88 96.23 11.88H33.34V57.03H24.27V8.85999C24.27 5.55999 26.97 2.89001 30.29 2.89001H96.24C114.47 2.89001 129.28 17.58 129.28 35.63V38C129.28 48.9 123.88 58.57 115.59 64.52C127.39 69.54 135.68 81.17 135.68 94.68Z" fill="white"/>
<path d="M74.04 66.1V66.17C74.04 68.64 72.04 70.62 69.59 70.62H9.17999V103.11H19.64V112.1H6.13C2.81 112.1 0.109985 109.42 0.109985 106.13V25.65C0.109985 22.36 2.81 19.69 6.13 19.69H19.6V28.68H9.17999V61.64H69.59C72.06 61.63 74.04 63.63 74.04 66.1Z" fill="white"/>
</svg>
